<svg xmlns="http://www.w3.org/2000/svg" viewBox="0 0 1024 600" font-family="-apple-system, BlinkMacSystemFont, 'Segoe UI', Roboto, sans-serif">
<defs>
<linearGradient id="cellGreen" x1="0" y1="0" x2="0" y2="1"><stop offset="0" stop-color="#6fd07d"/><stop offset="1" stop-color="#3a9f4a"/></linearGradient>
<linearGradient id="gloss" x1="0" y1="0" x2="0" y2="1"><stop offset="0" stop-color="#ffffff" stop-opacity="0.28"/><stop offset="1" stop-color="#ffffff" stop-opacity="0"/></linearGradient>
</defs>
<rect width="1024" height="600" fill="#0f0f11"/>
<rect x="0" y="0" width="1024" height="48" fill="#161618"/>
<path d="M30,24 L18,24 M22,20 L18,24 L22,28" stroke="#c8c8cc" stroke-width="2" fill="none" stroke-linecap="round" stroke-linejoin="round"/>
<text x="48" y="30" font-size="15" fill="#85858c">Settings</text>
<text x="120" y="30" font-size="13" fill="#55555c">&#8250;</text>
<text x="134" y="30" font-size="15" fill="#85858c">Integrations</text>
<text x="232" y="30" font-size="13" fill="#55555c">&#8250;</text>
<rect x="246" y="13" width="118" height="24" rx="7" fill="#4caf50"/>
<text x="305" y="30" font-size="15" fill="#08230c" text-anchor="middle" font-weight="700">BmsCellView</text>
<text x="1008" y="30" font-size="13" fill="#6a6a72" text-anchor="end">22:14</text>
<g transform="translate(12,56)"><rect width="494.0" height="532" rx="12" fill="#141416" stroke="#28282c" stroke-width="1"/><text x="247" y="28" font-size="16" fill="#e8e8ea" text-anchor="middle" font-weight="700">JK BMS 1  (BE:78)</text><rect x="16.0" y="40" width="110.2" height="42" rx="9" fill="#0f0f10" stroke="#26262a" stroke-width="1"/><circle cx="41.1" cy="58" r="4.5" fill="#4caf50"/><text x="75.1" y="62" font-size="12" fill="#a6a6ac" text-anchor="middle">Charge</text><text x="71.1" y="77" font-size="12" fill="#5cc46a" text-anchor="middle" font-weight="700">ON</text><rect x="133.2" y="40" width="110.2" height="42" rx="9" fill="#0f0f10" stroke="#26262a" stroke-width="1"/><circle cx="158.4" cy="58" r="4.5" fill="#4caf50"/><text x="192.4" y="62" font-size="12" fill="#a6a6ac" text-anchor="middle">Discharge</text><text x="188.4" y="77" font-size="12" fill="#5cc46a" text-anchor="middle" font-weight="700">ON</text><rect x="250.5" y="40" width="110.2" height="42" rx="9" fill="#0f0f10" stroke="#26262a" stroke-width="1"/><circle cx="275.6" cy="58" r="4.5" fill="#4caf50"/><text x="309.6" y="62" font-size="12" fill="#a6a6ac" text-anchor="middle">Balance</text><text x="305.6" y="77" font-size="12" fill="#5cc46a" text-anchor="middle" font-weight="700">ON</text><rect x="367.8" y="40" width="110.2" height="42" rx="9" fill="#0f0f10" stroke="#26262a" stroke-width="1"/><circle cx="392.9" cy="58" r="4.5" fill="#33333a"/><text x="426.9" y="62" font-size="12" fill="#a6a6ac" text-anchor="middle">Heater</text><text x="422.9" y="77" font-size="12" fill="#6a6a72" text-anchor="middle" font-weight="700">OFF</text><text x="16" y="104" font-size="12" fill="#85858c">Remaining</text><text x="222" y="104" font-size="13.5" fill="#e8e8ea" text-anchor="end" font-weight="700">255 Ah</text><text x="246" y="104" font-size="12" fill="#85858c">Consumed</text><text x="478.0" y="104" font-size="13.5" fill="#7fb6e0" text-anchor="end" font-weight="700">-25 Ah</text><text x="16" y="123" font-size="12" fill="#85858c">State of Charge</text><text x="222" y="123" font-size="13.5" fill="#e8e8ea" text-anchor="end" font-weight="700">91.0 %</text><text x="246" y="123" font-size="12" fill="#85858c">Voltage</text><text x="478.0" y="123" font-size="13.5" fill="#e8e8ea" text-anchor="end" font-weight="700">13.44 V</text><text x="16" y="142" font-size="12" fill="#85858c">Current</text><text x="222" y="142" font-size="13.5" fill="#e8e8ea" text-anchor="end" font-weight="700">0.00 A</text><text x="246" y="142" font-size="12" fill="#85858c">Power</text><text x="478.0" y="142" font-size="13.5" fill="#e8e8ea" text-anchor="end" font-weight="700">0 W</text><text x="16" y="161" font-size="12" fill="#85858c">Min cell</text><text x="222" y="161" font-size="13.5" fill="#5cc46a" text-anchor="end" font-weight="700">3.357 V</text><text x="246" y="161" font-size="12" fill="#85858c">Max cell</text><text x="478.0" y="161" font-size="13.5" fill="#5cc46a" text-anchor="end" font-weight="700">3.369 V</text><text x="16" y="180" font-size="12" fill="#85858c">Delta</text><text x="222" y="180" font-size="13.5" fill="#e8e8ea" text-anchor="end" font-weight="700">12 mV</text><text x="246" y="180" font-size="12" fill="#85858c">Cycles</text><text x="478.0" y="180" font-size="13.5" fill="#e8e8ea" text-anchor="end" font-weight="700">7</text><rect x="16.0" y="200" width="148.7" height="40" rx="8" fill="#0f0f10" stroke="#26262a" stroke-width="1"/><text x="90.3" y="216" font-size="10.5" fill="#85858c" text-anchor="middle" letter-spacing="0.4">SENSOR 1</text><text x="90.3" y="233" font-size="14" fill="#e8e8ea" text-anchor="middle" font-weight="700">10.2 °C</text><rect x="172.7" y="200" width="148.7" height="40" rx="8" fill="#0f0f10" stroke="#26262a" stroke-width="1"/><text x="247.0" y="216" font-size="10.5" fill="#85858c" text-anchor="middle" letter-spacing="0.4">SENSOR 2</text><text x="247.0" y="233" font-size="14" fill="#e8e8ea" text-anchor="middle" font-weight="700">11.0 °C</text><rect x="329.3" y="200" width="148.7" height="40" rx="8" fill="#0f0f10" stroke="#26262a" stroke-width="1"/><text x="403.7" y="216" font-size="10.5" fill="#85858c" text-anchor="middle" letter-spacing="0.4">MOSFET</text><text x="403.7" y="233" font-size="14" fill="#e8e8ea" text-anchor="middle" font-weight="700">16.5 °C</text><rect x="103" y="255" width="30" height="13" rx="4" fill="#c23628"/><text x="118" y="265" font-size="11" fill="#fff" text-anchor="middle" font-weight="900">+</text><rect x="361" y="255" width="30" height="13" rx="4" fill="#7a7a82"/><text x="376" y="265" font-size="12" fill="#fff" text-anchor="middle" font-weight="900">&#8722;</text><rect x="77" y="268" width="340" height="248" rx="10" fill="#181b20" stroke="#34373d" stroke-width="1"/><text x="89" y="288" font-size="12" fill="#aeb0b6" font-weight="700">JK B2A8S20P</text><text x="405" y="288" font-size="11" fill="#6f7178" text-anchor="end">4S LiFePO4 &#183; 280Ah</text><rect x="89.0" y="300" width="73.0" height="204" rx="6" fill="#0c0d0f" stroke="#2b2e34" stroke-width="1"/><text x="125.5" y="316" font-size="11" fill="#9a9aa2" text-anchor="middle">C1</text><line x1="91.0" y1="390.7" x2="160.0" y2="390.7" stroke="#41444b" stroke-width="1" stroke-dasharray="2,3"/><rect x="91.0" y="378.0" width="69.0" height="124.0" rx="4" fill="url(#cellGreen)"/><rect x="91.0" y="378.0" width="69.0" height="42.2" rx="4" fill="url(#gloss)"/><text x="125.5" y="496" font-size="12" fill="#fff" text-anchor="middle" font-weight="700">3.358 V</text><rect x="170.0" y="300" width="73.0" height="204" rx="6" fill="#0c0d0f" stroke="#2b2e34" stroke-width="1"/><text x="206.5" y="316" font-size="11" fill="#9a9aa2" text-anchor="middle">C2</text><line x1="172.0" y1="390.7" x2="241.0" y2="390.7" stroke="#41444b" stroke-width="1" stroke-dasharray="2,3"/><rect x="172.0" y="375.6" width="69.0" height="126.4" rx="4" fill="url(#cellGreen)"/><rect x="172.0" y="375.6" width="69.0" height="43.0" rx="4" fill="url(#gloss)"/><text x="206.5" y="496" font-size="12" fill="#fff" text-anchor="middle" font-weight="700">3.369 V</text><rect x="251.0" y="300" width="73.0" height="204" rx="6" fill="#0c0d0f" stroke="#2b2e34" stroke-width="1"/><text x="287.5" y="316" font-size="11" fill="#9a9aa2" text-anchor="middle">C3</text><line x1="253.0" y1="390.7" x2="322.0" y2="390.7" stroke="#41444b" stroke-width="1" stroke-dasharray="2,3"/><rect x="253.0" y="378.0" width="69.0" height="124.0" rx="4" fill="url(#cellGreen)"/><rect x="253.0" y="378.0" width="69.0" height="42.2" rx="4" fill="url(#gloss)"/><text x="287.5" y="496" font-size="12" fill="#fff" text-anchor="middle" font-weight="700">3.358 V</text><rect x="332.0" y="300" width="73.0" height="204" rx="6" fill="#0c0d0f" stroke="#2b2e34" stroke-width="1"/><text x="368.5" y="316" font-size="11" fill="#9a9aa2" text-anchor="middle">C4</text><line x1="334.0" y1="390.7" x2="403.0" y2="390.7" stroke="#41444b" stroke-width="1" stroke-dasharray="2,3"/><rect x="334.0" y="378.2" width="69.0" height="123.8" rx="4" fill="url(#cellGreen)"/><rect x="334.0" y="378.2" width="69.0" height="42.1" rx="4" fill="url(#gloss)"/><text x="368.5" y="496" font-size="12" fill="#fff" text-anchor="middle" font-weight="700">3.357 V</text></g>
<g transform="translate(518.0,56)"><rect width="494.0" height="532" rx="12" fill="#141416" stroke="#28282c" stroke-width="1"/><text x="247" y="28" font-size="16" fill="#e8e8ea" text-anchor="middle" font-weight="700">JK BMS 2  (BE:35)</text><rect x="16.0" y="40" width="110.2" height="42" rx="9" fill="#0f0f10" stroke="#26262a" stroke-width="1"/><circle cx="41.1" cy="58" r="4.5" fill="#4caf50"/><text x="75.1" y="62" font-size="12" fill="#a6a6ac" text-anchor="middle">Charge</text><text x="71.1" y="77" font-size="12" fill="#5cc46a" text-anchor="middle" font-weight="700">ON</text><rect x="133.2" y="40" width="110.2" height="42" rx="9" fill="#0f0f10" stroke="#26262a" stroke-width="1"/><circle cx="158.4" cy="58" r="4.5" fill="#4caf50"/><text x="192.4" y="62" font-size="12" fill="#a6a6ac" text-anchor="middle">Discharge</text><text x="188.4" y="77" font-size="12" fill="#5cc46a" text-anchor="middle" font-weight="700">ON</text><rect x="250.5" y="40" width="110.2" height="42" rx="9" fill="#0f0f10" stroke="#26262a" stroke-width="1"/><circle cx="275.6" cy="58" r="4.5" fill="#4caf50"/><text x="309.6" y="62" font-size="12" fill="#a6a6ac" text-anchor="middle">Balance</text><text x="305.6" y="77" font-size="12" fill="#5cc46a" text-anchor="middle" font-weight="700">ON</text><rect x="367.8" y="40" width="110.2" height="42" rx="9" fill="#0f0f10" stroke="#26262a" stroke-width="1"/><circle cx="392.9" cy="58" r="4.5" fill="#33333a"/><text x="426.9" y="62" font-size="12" fill="#a6a6ac" text-anchor="middle">Heater</text><text x="422.9" y="77" font-size="12" fill="#6a6a72" text-anchor="middle" font-weight="700">OFF</text><text x="16" y="104" font-size="12" fill="#85858c">Remaining</text><text x="222" y="104" font-size="13.5" fill="#e8e8ea" text-anchor="end" font-weight="700">246 Ah</text><text x="246" y="104" font-size="12" fill="#85858c">Consumed</text><text x="478.0" y="104" font-size="13.5" fill="#7fb6e0" text-anchor="end" font-weight="700">-34 Ah</text><text x="16" y="123" font-size="12" fill="#85858c">State of Charge</text><text x="222" y="123" font-size="13.5" fill="#e8e8ea" text-anchor="end" font-weight="700">88.0 %</text><text x="246" y="123" font-size="12" fill="#85858c">Voltage</text><text x="478.0" y="123" font-size="13.5" fill="#e8e8ea" text-anchor="end" font-weight="700">13.44 V</text><text x="16" y="142" font-size="12" fill="#85858c">Current</text><text x="222" y="142" font-size="13.5" fill="#e8e8ea" text-anchor="end" font-weight="700">0.00 A</text><text x="246" y="142" font-size="12" fill="#85858c">Power</text><text x="478.0" y="142" font-size="13.5" fill="#e8e8ea" text-anchor="end" font-weight="700">0 W</text><text x="16" y="161" font-size="12" fill="#85858c">Min cell</text><text x="222" y="161" font-size="13.5" fill="#5cc46a" text-anchor="end" font-weight="700">3.359 V</text><text x="246" y="161" font-size="12" fill="#85858c">Max cell</text><text x="478.0" y="161" font-size="13.5" fill="#5cc46a" text-anchor="end" font-weight="700">3.363 V</text><text x="16" y="180" font-size="12" fill="#85858c">Delta</text><text x="222" y="180" font-size="13.5" fill="#e8e8ea" text-anchor="end" font-weight="700">5 mV</text><text x="246" y="180" font-size="12" fill="#85858c">Cycles</text><text x="478.0" y="180" font-size="13.5" fill="#e8e8ea" text-anchor="end" font-weight="700">7</text><rect x="16.0" y="200" width="148.7" height="40" rx="8" fill="#0f0f10" stroke="#26262a" stroke-width="1"/><text x="90.3" y="216" font-size="10.5" fill="#85858c" text-anchor="middle" letter-spacing="0.4">SENSOR 1</text><text x="90.3" y="233" font-size="14" fill="#e8e8ea" text-anchor="middle" font-weight="700">11.0 °C</text><rect x="172.7" y="200" width="148.7" height="40" rx="8" fill="#0f0f10" stroke="#26262a" stroke-width="1"/><text x="247.0" y="216" font-size="10.5" fill="#85858c" text-anchor="middle" letter-spacing="0.4">SENSOR 2</text><text x="247.0" y="233" font-size="14" fill="#e8e8ea" text-anchor="middle" font-weight="700">11.2 °C</text><rect x="329.3" y="200" width="148.7" height="40" rx="8" fill="#0f0f10" stroke="#26262a" stroke-width="1"/><text x="403.7" y="216" font-size="10.5" fill="#85858c" text-anchor="middle" letter-spacing="0.4">MOSFET</text><text x="403.7" y="233" font-size="14" fill="#e8e8ea" text-anchor="middle" font-weight="700">17.0 °C</text><rect x="103" y="255" width="30" height="13" rx="4" fill="#c23628"/><text x="118" y="265" font-size="11" fill="#fff" text-anchor="middle" font-weight="900">+</text><rect x="361" y="255" width="30" height="13" rx="4" fill="#7a7a82"/><text x="376" y="265" font-size="12" fill="#fff" text-anchor="middle" font-weight="900">&#8722;</text><rect x="77" y="268" width="340" height="248" rx="10" fill="#181b20" stroke="#34373d" stroke-width="1"/><text x="89" y="288" font-size="12" fill="#aeb0b6" font-weight="700">JK B2A8S20P</text><text x="405" y="288" font-size="11" fill="#6f7178" text-anchor="end">4S LiFePO4 &#183; 280Ah</text><rect x="89.0" y="300" width="73.0" height="204" rx="6" fill="#0c0d0f" stroke="#2b2e34" stroke-width="1"/><text x="125.5" y="316" font-size="11" fill="#9a9aa2" text-anchor="middle">C1</text><line x1="91.0" y1="390.7" x2="160.0" y2="390.7" stroke="#41444b" stroke-width="1" stroke-dasharray="2,3"/><rect x="91.0" y="376.9" width="69.0" height="125.1" rx="4" fill="url(#cellGreen)"/><rect x="91.0" y="376.9" width="69.0" height="42.5" rx="4" fill="url(#gloss)"/><text x="125.5" y="496" font-size="12" fill="#fff" text-anchor="middle" font-weight="700">3.363 V</text><rect x="170.0" y="300" width="73.0" height="204" rx="6" fill="#0c0d0f" stroke="#2b2e34" stroke-width="1"/><text x="206.5" y="316" font-size="11" fill="#9a9aa2" text-anchor="middle">C2</text><line x1="172.0" y1="390.7" x2="241.0" y2="390.7" stroke="#41444b" stroke-width="1" stroke-dasharray="2,3"/><rect x="172.0" y="377.8" width="69.0" height="124.2" rx="4" fill="url(#cellGreen)"/><rect x="172.0" y="377.8" width="69.0" height="42.2" rx="4" fill="url(#gloss)"/><text x="206.5" y="496" font-size="12" fill="#fff" text-anchor="middle" font-weight="700">3.359 V</text><rect x="251.0" y="300" width="73.0" height="204" rx="6" fill="#0c0d0f" stroke="#2b2e34" stroke-width="1"/><text x="287.5" y="316" font-size="11" fill="#9a9aa2" text-anchor="middle">C3</text><line x1="253.0" y1="390.7" x2="322.0" y2="390.7" stroke="#41444b" stroke-width="1" stroke-dasharray="2,3"/><rect x="253.0" y="378.0" width="69.0" height="124.0" rx="4" fill="url(#cellGreen)"/><rect x="253.0" y="378.0" width="69.0" height="42.2" rx="4" fill="url(#gloss)"/><text x="287.5" y="496" font-size="12" fill="#fff" text-anchor="middle" font-weight="700">3.358 V</text><rect x="332.0" y="300" width="73.0" height="204" rx="6" fill="#0c0d0f" stroke="#2b2e34" stroke-width="1"/><text x="368.5" y="316" font-size="11" fill="#9a9aa2" text-anchor="middle">C4</text><line x1="334.0" y1="390.7" x2="403.0" y2="390.7" stroke="#41444b" stroke-width="1" stroke-dasharray="2,3"/><rect x="334.0" y="378.0" width="69.0" height="124.0" rx="4" fill="url(#cellGreen)"/><rect x="334.0" y="378.0" width="69.0" height="42.2" rx="4" fill="url(#gloss)"/><text x="368.5" y="496" font-size="12" fill="#fff" text-anchor="middle" font-weight="700">3.358 V</text></g>
</svg>
